<svg version="1.1" xmlns="http://www.w3.org/2000/svg" xmlns:xlink="http://www.w3.org/1999/xlink" x="0px" y="0px"
	 viewBox="0 0 16 16" style="enable-background:new 0 0 16 16;" xml:space="preserve">
<path d="M15.64,13.536L11.814,9.71c0.577-0.948,0.909-2.061,0.909-3.252C12.723,2.998,9.725,0,6.265,0C2.805,0,0,2.805,0,6.265
			s2.998,6.458,6.458,6.458c1.15,0,2.228-0.312,3.154-0.853l3.847,3.848c0.377,0.377,0.987,0.377,1.363,0l0.954-0.954
			C16.153,14.387,16.017,13.913,15.64,13.536z M1.928,6.265c0-2.396,1.942-4.337,4.337-4.337c2.396,0,4.53,2.134,4.53,4.53
			c0,2.395-1.942,4.337-4.337,4.337C4.062,10.795,1.928,8.661,1.928,6.265z"/>
</svg>
